<?xml version="1.0" standalone="no"?><!DOCTYPE svg PUBLIC "-//W3C//DTD SVG 1.1//EN" "http://www.w3.org/Graphics/SVG/1.1/DTD/svg11.dtd"><svg t="1535347752093" class="icon" style="" viewBox="0 0 1024 1024" version="1.1" xmlns="http://www.w3.org/2000/svg" p-id="2233" xmlns:xlink="http://www.w3.org/1999/xlink" width="48" height="48"><defs><style type="text/css"></style></defs><path d="M512 512m-512 0a512 512 0 1 0 1024 0 512 512 0 1 0-1024 0Z" fill="#DE2326" p-id="2234"></path><path d="M529.152 423.708444v208.014223h-48.540444V423.708444h48.540444m0-155.989333v103.992889h-48.540444v-103.992889h48.540444m0 429.852445v104.007111h-48.540444v-104.007111h48.540444m-20.807111-138.652445h-103.992889v-48.540444h103.992889v48.540444m-176.782222 0H227.555556v-48.540444h104.007111v48.540444m450.645333 0h-103.992889v-48.540444H782.222222l-0.014222 48.540444m-162.929778 34.645333v117.873778h-48.526222v-117.873778h48.526222m69.333334 48.540445h-117.859556v-48.540445h117.859556v48.540445m93.596444-48.540445V801.564444H570.752v-48.526222h159.459556V593.564444h51.996444M227.555556 267.719111h208v211.470222h-45.056V319.715556H227.555556v-51.996445m208 211.456H227.555556V267.719111h48.526222v159.459556h159.473778v51.996444M227.555556 593.564444h208v211.470223h-45.056V645.575111H227.555556v-52.010667M435.555556 801.564444H227.555556V593.564444h48.526222v159.473778h159.473778v48.526222m138.666666-533.845333H782.222222v211.470222h-48.540444V319.715556H574.222222v-51.996445m207.985778 211.456H574.222222V267.719111h48.526222v159.459556H782.222222l-0.014222 51.996444m0 0z" fill="#FFFFFF" p-id="2235"></path></svg>