<?xml version="1.0" standalone="no"?><!DOCTYPE svg PUBLIC "-//W3C//DTD SVG 1.1//EN" "http://www.w3.org/Graphics/SVG/1.1/DTD/svg11.dtd"><svg t="1530846384273" class="icon" style="" viewBox="0 0 1024 1024" version="1.1" xmlns="http://www.w3.org/2000/svg" p-id="3908" xmlns:xlink="http://www.w3.org/1999/xlink" width="48" height="48"><defs><style type="text/css"></style></defs><path d="M639.488 469.504h-84.48V390.144c0-12.288-7.168-20.48-16.896-19.968-11.776 1.024-15.872 8.704-15.36 19.456 0.512 15.36 0 30.208 0 49.152-5.632-5.632-9.216-8.704-12.288-11.776-9.216-8.704-18.944-10.24-26.112-3.584-7.68 7.168-6.656 16.896 3.072 26.624l29.696 29.696c-11.264 12.288-21.504 23.04-31.744 34.304-9.216-9.728-19.456-19.456-29.184-29.696-10.24-10.24-20.48-11.776-27.648-4.096-7.168 7.68-6.144 16.384 4.608 26.624s22.016 19.968 33.792 31.232c-14.336 13.824-26.112 25.088-37.888 36.352-7.68 7.68-10.24 15.872-2.56 24.576 6.656 7.68 15.872 7.168 25.6-2.56 11.264-11.264 22.528-23.04 34.816-35.84 12.8 13.312 24.064 24.576 35.328 35.328 6.144 6.144 12.8 8.704 20.48 3.584 9.216-6.144 10.752-17.408 2.048-26.112-11.264-11.264-23.04-22.016-33.28-31.744 12.288-12.8 22.016-23.552 33.792-35.84 11.264 11.776 21.504 23.04 32.768 34.304 8.192 8.192 18.432 9.216 24.576 2.048 7.68-8.704 5.632-17.408-2.048-24.576-4.096-4.096-9.216-7.168-13.824-10.752 1.024-1.024 2.048-2.56 3.072-3.584 2.048-0.512 4.096-0.512 5.632-0.512 14.848 0 30.208 0.512 45.056-0.512 9.728-0.512 16.384-5.632 15.872-16.384-1.024-11.264-7.168-16.384-16.896-16.384zM668.16 322.56c-17.92 0-32.256 13.824-31.744 31.232 0.512 16.896 13.824 30.208 31.232 30.208 17.92 0 32.256-13.824 31.744-31.232-0.512-16.384-14.336-30.208-31.232-30.208z" fill="#FFA200" p-id="3909"></path><path d="M517.12 30.72C248.32 30.72 30.72 248.32 30.72 517.12s217.6 486.4 486.4 486.4 486.4-217.6 486.4-486.4-217.6-486.4-486.4-486.4z m231.424 509.44c-6.144 7.68-11.776 15.36-18.944 22.528L583.68 708.608c-19.968 19.968-37.888 41.472-66.56 50.176h-20.48c-27.136-7.168-45.056-27.648-64-46.592-44.544-45.056-89.088-89.6-134.144-133.632-14.848-14.336-26.624-29.696-30.208-50.688v-17.92c4.608-20.48 16.896-36.352 31.744-51.2C355.84 403.968 410.624 348.16 466.432 293.376c7.168-6.656 16.384-11.264 25.088-16.896h138.752c4.608 1.024 9.216 2.048 13.824 2.56 37.376 5.632 68.608 22.016 86.528 56.32 8.192 15.872 11.776 34.304 17.92 51.2v153.6z" fill="#FFA200" p-id="3910"></path></svg>