<?xml version="1.0" standalone="no"?><!DOCTYPE svg PUBLIC "-//W3C//DTD SVG 1.1//EN" "http://www.w3.org/Graphics/SVG/1.1/DTD/svg11.dtd"><svg t="1533021785192" class="icon" style="" viewBox="0 0 1024 1024" version="1.1" xmlns="http://www.w3.org/2000/svg" p-id="2119" xmlns:xlink="http://www.w3.org/1999/xlink" width="32" height="32"><defs><style type="text/css"></style></defs><path d="M70.37076846 146.14629401h835.89875915v835.89875915H70.37076846z" fill="#F5B638" p-id="2120"></path><path d="M153.25024987 221.92181958h248.63844063v388.34956348l189.43881208-213.11866313H513.18399175v-56.83164325h305.47008568v56.83164325h-66.30358442l-473.59703017 509.11680768V269.28152169h-125.50321297zM600.79944372 721.56668609v-14.20791168-28.41582164c0-7.10395585 2.36798529-14.20791171 7.10395585-21.31186578 2.36798529-7.10395585 7.10395585-11.83992641 11.83992465-14.20791172 4.73597057-2.36798529 7.10395585-4.73597057 11.83992641-7.10395405 2.36798529 0 7.10395585-2.36798529 14.20790992-2.36798529 4.73597057 0 9.47194114-2.36798529 14.20791171-2.3679853h49.72768741c2.36798529 0 7.10395585 0 14.2079117 2.3679853 4.73597057 2.36798529 9.47194114 2.36798529 14.20790994 4.73597057 4.73597057 2.36798529 7.10395585 2.36798529 9.47194115 4.73596877l7.10395585 7.10395586c2.36798529 2.36798529 4.73597057 7.10395585 7.10395584 9.47194113 2.36798529 4.73597057 2.36798529 7.10395585 4.73597058 9.47194116s2.36798529 7.10395585 2.3679835 11.83992464v26.04783635c0 9.47194114 0 16.57589521-2.3679835 21.31186755 0 4.73597057-2.36798529 9.47194114-2.36798528 11.83992462-2.36798529 2.36798529-2.36798529 7.10395585-4.73597058 9.47194116-2.36798529 2.36798529-4.73597057 7.10395585-7.10395586 9.47194113s-7.10395585 4.73597057-9.47194112 7.10395586c-4.73597057 2.36798529-9.47194114 2.36798529-11.83992463 4.73596878s-16.57589521 9.47194114-30.78380693 9.47194116l-37.88776277 4.73597054c-4.73597057 0-9.47194114 2.36798529-11.83992643 2.36798532-2.36798529 2.36798529-4.73597057 2.36798529-4.73597058 4.73597056-2.36798529 2.36798529-2.36798529 4.73597057-2.36798528 7.10395585V813.91810686l2.36798528 2.36798529h118.3992589v49.72768742h-163.39097573v-59.19962857c0-7.10395585 0-11.83992641 2.36798529-16.5758952 0-4.73597057 2.36798529-9.47194114 2.36798527-14.20791171 0-4.73597057 2.36798529-9.47194114 7.10395406-14.20790994l9.47194116-9.47194114c2.36798529-2.36798529 7.10395585-4.73597057 9.47194113-7.10395585s7.10395585-2.36798529 14.20790992-4.73597058 11.83992641-2.36798529 18.9438823-2.36798527l23.67985106-2.36798349h11.83992642c4.73597057 0 9.47194114-2.36798529 11.83992463-2.3679853s4.73597057-2.36798529 7.10395587-4.73597056c2.36798529-2.36798529 2.36798529-4.73597057 2.36798526-9.47194113v-7.10395587c0-11.83992641 0-18.9438805-2.36798526-21.31186578s-4.73597057-4.73597057-7.10395587-4.73597056h-49.7276874c-4.73597057 0-7.10395585 0-9.47194115 2.36798529s-4.73597057 2.36798529-7.10395586 4.73597057c-2.36798529 2.36798529-2.36798529 4.73597057-2.36798528 11.83992463v18.94388226h-42.62373155z" fill="#FFFFFF" p-id="2121"></path></svg>