<?xml version="1.0" standalone="no"?><!DOCTYPE svg PUBLIC "-//W3C//DTD SVG 1.1//EN" "http://www.w3.org/Graphics/SVG/1.1/DTD/svg11.dtd"><svg t="1533021792333" class="icon" style="" viewBox="0 0 1024 1024" version="1.1" xmlns="http://www.w3.org/2000/svg" p-id="2244" xmlns:xlink="http://www.w3.org/1999/xlink" width="32" height="32"><defs><style type="text/css"></style></defs><path d="M34.909091 36.159354h952.92897v952.928969H34.909091z" fill="#F18E4B" p-id="2245"></path><path d="M131.373253 120.927677H414.913939v444.312565l216.308364-244.080484h-89.156525v-62.842829h347.848404v62.842829h-75.999677l-540.772848 581.701818V177.932929H131.373253V120.927677zM694.070303 749.397333v-52.615757h64.30901c2.918141 0 5.842747 0 10.227071-1.459717 4.38303-1.464889 7.307636-2.924606 8.772525-4.389495 1.459717-1.459717 2.919434-2.919434 4.384323-5.842748 1.458424-2.924606 1.458424-7.308929 1.458425-14.616565s0-13.151677-1.458425-16.076283c-1.464889-2.923313-4.384323-5.847919-7.308929-7.307637-2.924606-1.464889-7.307636-2.924606-11.69196-2.924606h-45.308121c-8.772525 0-13.156848 1.459717-16.07499 2.924606-2.924606 2.924606-4.389495 4.384323-4.389495 5.842748-1.459717 1.464889-1.459717 4.389495-1.459717 7.308929l-1.459717 16.080162h-49.696323V645.624242c0-7.307636 1.464889-13.151677 2.924606-18.999596 1.463596-5.84404 4.38303-10.227071 7.307636-16.076282 2.924606-4.38303 5.847919-8.767354 10.232243-11.69196 2.924606-2.923313 7.307636-4.38303 10.232242-5.847919 2.919434-1.459717 5.84404-2.919434 10.227071-2.919434 4.384323-1.464889 10.232242-1.464889 17.541171-1.464889h73.075071c4.384323 0 8.772525 1.464889 16.081455 2.924606 7.302465 1.459717 11.69196 4.384323 16.07499 7.307636 4.384323 2.924606 8.767354 7.308929 10.22707 10.232242 2.924606 2.924606 4.389495 8.768646 5.849212 14.616566 1.459717 5.84404 2.924606 13.151677 4.383031 18.999596 1.464889 5.84404 1.464889 13.151677 0 21.91903 0 8.773818-1.458424 16.081455-2.923313 23.389091-1.459717 7.308929-2.919434 11.69196-5.844041 14.616566l-10.232242 11.69196c4.384323 5.842747 7.307636 8.767354 10.232242 13.151676 1.459717 2.924606 4.384323 7.307636 5.844041 10.232243 1.464889 4.38303 2.923313 8.767354 2.923313 13.151677 1.464889 5.847919 1.464889 13.156848 1.464889 21.924202s0 14.615273-1.464889 20.464484c-1.458424 5.842747-1.458424 10.227071-4.383031 17.534707-1.459717 5.849212-4.384323 11.69196-5.849212 14.616566-2.918141 4.384323-5.842747 7.307636-10.22707 13.156849-4.38303 4.38303-8.772525 7.302465-11.69196 8.767353-2.923313 1.459717-8.772525 2.924606-14.615273 4.384323-7.308929 1.459717-11.69196 1.459717-14.616565 1.459718h-71.616647c-5.847919 0-13.156848-1.459717-18.999596-2.919435-7.307636-1.464889-11.69196-4.389495-13.156848-5.849212l-7.302465-7.307636c-2.924606-2.924606-4.389495-4.384323-5.849212-7.307637-1.459717-1.459717-2.923313-4.384323-4.38303-7.308929-1.464889-2.923313-2.924606-7.307636-2.924606-10.227071-1.459717-2.924606-1.459717-7.307636-2.924606-11.697131-1.459717-4.38303-1.459717-8.767354-1.459718-10.227071v-23.383919h49.692445c1.459717 7.303758 1.459717 11.69196 2.924606 16.076283 1.459717 2.924606 1.459717 5.842747 2.923313 7.307636 1.459717 1.459717 2.919434 2.924606 4.384323 2.924606 1.459717 0 5.842747 1.459717 11.69196 1.459718h49.692444c10.232242 0 16.07499-1.459717 18.999596-4.384324l4.383031-8.772525c0-2.919434 1.464889-5.84404 1.464888-8.767353v-10.232243c-1.464889-5.84404-2.923313-8.768646-4.388202-11.691959-2.919434-2.919434-5.84404-4.384323-8.768646-4.384324H694.070303v2.924606z m0 0" fill="#FFFFFF" p-id="2246"></path></svg>