<?xml version="1.0" standalone="no"?><!DOCTYPE svg PUBLIC "-//W3C//DTD SVG 1.1//EN" "http://www.w3.org/Graphics/SVG/1.1/DTD/svg11.dtd"><svg t="1533021773995" class="icon" style="" viewBox="0 0 1024 1024" version="1.1" xmlns="http://www.w3.org/2000/svg" p-id="1994" xmlns:xlink="http://www.w3.org/1999/xlink" width="32" height="32"><defs><style type="text/css"></style></defs><path d="M79.696162 80.161616h864.606383v864.606384H79.696162z" fill="#3BAEF4" p-id="1995"></path><path d="M165.423838 158.540283h257.176566v401.687273l195.944727-220.439273H537.716364V281.005253h315.959596v58.78303h-68.580849L295.236525 866.389333v-658.863838H165.423838zM814.881616 703.993535c0.764121 85.719919-31.833212 128.177131-97.792 127.423354-63.649616-1.542465-95.864242-43.998384-96.628363-127.423354 1.546343-83.405576 33.762263-126.650182 96.628363-129.718303 64.413737 0.771879 97.011071 44.017778 97.792 129.718303z m-57.045333 1.148122c0.764121-65.038222-12.423758-96.804202-39.581738-95.278546-27.940202-0.753778-41.911596 30.995394-41.911596 95.278546 0 61.989495 13.971394 92.984889 41.911596 92.984888 26.375758 0 39.581737-30.995394 39.581738-92.984888z" fill="#FFFFFF" p-id="1996"></path></svg>