<?xml version="1.0" standalone="no"?><!DOCTYPE svg PUBLIC "-//W3C//DTD SVG 1.1//EN" "http://www.w3.org/Graphics/SVG/1.1/DTD/svg11.dtd"><svg t="1533021812325" class="icon" style="" viewBox="0 0 1024 1024" version="1.1" xmlns="http://www.w3.org/2000/svg" p-id="2494" xmlns:xlink="http://www.w3.org/1999/xlink" width="32" height="32"><defs><style type="text/css"></style></defs><path d="M64.910737 83.456662h892.853817v892.853817H64.910737z" fill="#884A99" p-id="2495"></path><path d="M154.990944 162.939198h266.266495v415.958603l202.680465-227.849936H539.156533V291.435964h327.203105v59.611901h-71.534282L288.786546 895.503234V215.927555H154.990944zM637.184994 756.408797V602.742561h169.562742v50.33894h-125.847348V691.49806c0 1.324709 0 1.324709 1.324709 1.324708h2.649418l6.623545-2.649417 11.92238-1.324709h52.988357c7.948254 0 14.571798 0 18.545925 1.324709 3.974127 1.324709 7.948254 2.649418 11.92238 5.298835 3.974127 2.649418 7.948254 6.623545 11.922381 13.24709 3.974127 5.298836 6.623545 13.247089 7.948253 19.870633 1.324709 7.948254 2.649418 17.221216 2.649418 27.818888v26.494178c0 6.623545-1.324709 11.92238-1.324709 15.896508-1.324709 3.974127-2.649418 9.272962-3.974127 14.571798-1.324709 5.298836-2.649418 9.272962-3.974127 11.92238-1.324709 2.649418-2.649418 5.298836-5.298835 7.948254-2.649418 2.649418-3.974127 5.298836-7.948254 6.623544-2.649418 2.649418-6.623545 3.974127-10.597671 5.298836l-11.922381 3.974127c-3.974127 1.324709-9.272962 1.324709-17.221216 2.649418h-39.741267c-10.597671 0-18.545925 0-23.844761-1.324709-5.298836 0-10.597671-1.324709-14.571798-2.649418-5.298836-1.324709-9.272962-3.974127-13.24709-6.623545-3.974127-2.649418-6.623545-5.298836-9.272962-9.272962-2.649418-3.974127-5.298836-6.623545-6.623545-10.597672-2.649418-3.974127-3.974127-9.272962-5.298835-14.571798s-2.649418-10.597671-2.649418-13.247089l-1.324709-23.844761h46.364812c0 6.623545 1.324709 11.92238 2.649418 15.896507s3.974127 7.948254 6.623545 10.597672c3.974127 2.649418 7.948254 3.974127 15.896507 3.974126H724.615783c11.92238 0 21.195343 0 26.494178-1.324708s9.272962-3.974127 10.597672-9.272963c1.324709-3.974127 2.649418-10.597671 2.649417-18.545925 0-6.623545-1.324709-13.247089-2.649417-17.221216-1.324709-3.974127-2.649418-6.623545-5.298836-7.948254l-5.298836-2.649417h-52.988357c-5.298836 0-9.272962 1.324709-9.272962 2.649417l-9.272963 10.597672h-42.390685z" fill="#FFFFFF" p-id="2496"></path></svg>