<?xml version="1.0" standalone="no"?><!DOCTYPE svg PUBLIC "-//W3C//DTD SVG 1.1//EN" "http://www.w3.org/Graphics/SVG/1.1/DTD/svg11.dtd"><svg t="1530861429576" class="icon" style="" viewBox="0 0 1024 1024" version="1.1" xmlns="http://www.w3.org/2000/svg" p-id="7897" xmlns:xlink="http://www.w3.org/1999/xlink" width="48" height="48"><defs><style type="text/css"></style></defs><path d="M512 512m-512 0a512 512 0 1 0 1024 0 512 512 0 1 0-1024 0Z" fill="#A8CCF7" p-id="7898"></path><path d="M204.8 697.6c0 19.2 15.36 35.84 35.84 35.84h542.72c19.2 0 35.84-15.36 35.84-35.84v-230.4h-614.4v230.4z m454.4-124.16h98.56l-17.92 79.36h-98.56l17.92-79.36z m124.16-291.84h-542.72c-19.2 0-35.84 15.36-35.84 35.84v97.28h614.4v-97.28c0-20.48-16.64-35.84-35.84-35.84z" fill="#FFFFFF" p-id="7899"></path></svg>