<?xml version="1.0" standalone="no"?><!DOCTYPE svg PUBLIC "-//W3C//DTD SVG 1.1//EN" "http://www.w3.org/Graphics/SVG/1.1/DTD/svg11.dtd"><svg t="1530861358308" class="icon" style="" viewBox="0 0 1024 1024" version="1.1" xmlns="http://www.w3.org/2000/svg" p-id="6441" xmlns:xlink="http://www.w3.org/1999/xlink" width="48" height="48"><defs><style type="text/css"></style></defs><path d="M984.02304 312.590336c-25.8048-61.00855467-62.73979733-115.79118933-109.78372267-162.82965333-47.038464-47.038464-101.82656-83.97346133-162.82965333-109.77826134C648.23296 13.26011733 581.14594133-0.28945067 512-0.28945067s-136.23842133 13.54410667-199.409664 40.271872c-61.00309333 25.8048-115.79118933 62.73979733-162.82965333 109.77826134-47.04392533 47.038464-83.97346133 101.82656-109.78372267 162.82965333C13.26011733 375.76157867-0.28945067 442.85405867-0.28945067 512s13.54410667 136.23296 40.26641067 199.41512533c25.8048 61.00309333 62.73979733 115.785728 109.78372267 162.824192 47.038464 47.038464 101.82656 83.97892267 162.82965333 109.78372267 63.17124267 26.722304 130.26372267 40.26641067 199.409664 40.26641067s136.23296-13.54410667 199.409664-40.26641067c61.00855467-25.8048 115.79118933-62.73979733 162.82965333-109.78372267s83.97346133-101.82656 109.78372267-162.824192c26.722304-63.17124267 40.26641067-130.26372267 40.26641067-199.41512533 0-69.14594133-13.549568-136.23296-40.26641067-199.409664z m-194.46715733-62.04074667l-210.15210667 325.38624a11.665408 11.665408 0 0 1-3.46794667 3.46794667l-325.39716266 210.13026133a11.65448533 11.65448533 0 0 1-14.548992-1.54555733 11.64356267 11.64356267 0 0 1-1.54555734-14.548992l210.141184-325.38624c0.89565867-1.38717867 2.07530667-2.56682667 3.46248534-3.46794667l325.41354666-210.13026133a11.63810133 11.63810133 0 0 1 16.09454934 16.09454933z" fill="#a48b36" p-id="6442"></path><path d="M512 463.24667733c-26.886144 0-48.758784 21.87264-48.758784 48.75332267s21.87264 48.758784 48.758784 48.758784c26.88068267 0 48.758784-21.87810133 48.758784-48.758784 0-26.88068267-21.87810133-48.75332267-48.758784-48.75332267z" fill="#a48b36" p-id="6443"></path></svg>