<?xml version="1.0" standalone="no"?><!DOCTYPE svg PUBLIC "-//W3C//DTD SVG 1.1//EN" "http://www.w3.org/Graphics/SVG/1.1/DTD/svg11.dtd"><svg t="1530845353539" class="icon" style="" viewBox="0 0 1024 1024" version="1.1" xmlns="http://www.w3.org/2000/svg" p-id="2098" xmlns:xlink="http://www.w3.org/1999/xlink" width="48" height="48"><defs><style type="text/css"></style></defs><path d="M512 503.466667z m-469.333333 0c0 260.266667 209.066667 469.333333 469.333333 469.333333s469.333333-209.066667 469.333333-469.333333-209.066667-469.333333-469.333333-469.333334-469.333333 213.333333-469.333333 469.333334" fill="#A41976" p-id="2099"></path><path d="M610.133333 733.866667l-213.333333-72.533334H285.866667v-68.266666h123.733333l221.866667 76.8-21.333334 64z" fill="#FFFFFF" p-id="2100"></path><path d="M285.866667 657.066667h93.866666V725.333333H285.866667v-68.266666z" fill="#FFFFFF" p-id="2101"></path><path d="M507.733333 793.6l-192-89.6 17.066667-38.4 179.2 81.066667 302.933333-106.666667 12.8 38.4-320 115.2zM401.066667 733.866667l-34.133334-25.6 4.266667-4.266667v-68.266667h42.666667v85.333334l-12.8 12.8z m-204.8-174.933334h85.333333V768h-85.333333v-209.066667z m430.933333 12.8h-59.733333v-170.666666l-17.066667-29.866667L469.333333 247.466667l51.2-34.133334 106.666667 170.666667v187.733333z" fill="#FFFFFF" p-id="2102"></path><path d="M571.733333 379.733333l102.4-162.133333 51.2 29.866667-102.4 162.133333-51.2-29.866667z" fill="#FFFFFF" p-id="2103"></path><path d="M460.8 362.666667H725.333333V426.666667h-264.533333V362.666667z m0 89.6H725.333333V512h-264.533333v-59.733333z" fill="#FFFFFF" p-id="2104"></path></svg>