<?xml version="1.0" standalone="no"?><!DOCTYPE svg PUBLIC "-//W3C//DTD SVG 1.1//EN" "http://www.w3.org/Graphics/SVG/1.1/DTD/svg11.dtd"><svg t="1530861526323" class="icon" style="" viewBox="0 0 1024 1024" version="1.1" xmlns="http://www.w3.org/2000/svg" p-id="10470" xmlns:xlink="http://www.w3.org/1999/xlink" width="48" height="48"><defs><style type="text/css"></style></defs><path d="M564.586667 588.16l128 0 0 128-128 0 0-128Z" fill="#7DC932" p-id="10471"></path><path d="M320.533333 362.88l128 0 0 128-128 0 0-128Z" fill="#7DC932" p-id="10472"></path><path d="M512 0a512 512 0 1 0 512 512A512 512 0 0 0 512 0z m-42.133333 705.493333a32 32 0 0 1-32 32h-106.666667a32 32 0 0 1-32-32v-106.666666a32 32 0 0 1 32-32h106.666667a32 32 0 0 1 32 32z m0-225.386666a32 32 0 0 1-32 32h-106.666667a32 32 0 0 1-32-32V373.333333a32 32 0 0 1 32-32h106.666667a32 32 0 0 1 32 32z m244.053333 225.386666a32 32 0 0 1-32 32h-106.666667a32 32 0 0 1-32-32v-106.666666a32 32 0 0 1 32-32h106.666667a32 32 0 0 1 32 32z m5.12-263.573333l-75.306667 75.413333a21.333333 21.333333 0 0 1-30.186666 0l-75.413334-75.413333a21.333333 21.333333 0 0 1 0-30.186667l75.413334-75.413333a21.333333 21.333333 0 0 1 30.186666 0l75.413334 75.413333a21.333333 21.333333 0 0 1 0 30.186667z" fill="#7DC932" p-id="10473"></path><path d="M320.533333 588.16l128 0 0 128-128 0 0-128Z" fill="#7DC932" p-id="10474"></path></svg>