<?xml version="1.0" standalone="no"?><!DOCTYPE svg PUBLIC "-//W3C//DTD SVG 1.1//EN" "http://www.w3.org/Graphics/SVG/1.1/DTD/svg11.dtd"><svg t="1530861933061" class="icon" style="" viewBox="0 0 1024 1024" version="1.1" xmlns="http://www.w3.org/2000/svg" p-id="11145" xmlns:xlink="http://www.w3.org/1999/xlink" width="48" height="48"><defs><style type="text/css"></style></defs><path d="M512 512m-512 0a512 512 0 1 0 1024 0 512 512 0 1 0-1024 0Z" fill="#DF4140" p-id="11146"></path><path d="M512 552.350263c-164.987741 0-294.108581-68.14711-294.108581-155.124344S347.012259 242.101576 512 242.101576s294.108581 68.14711 294.108581 155.124343-129.120841 155.124343-294.108581 155.124344z m0-271.691769c-153.330998 0-255.551664 60.077058-255.551664 116.567425s103.117338 116.567426 255.551664 116.567426c153.330998 0 255.551664-60.077058 255.551664-116.567426s-103.117338-116.567426-255.551664-116.567425z" fill="#FFFFFF" p-id="11147"></path><path d="M512 664.434326c-164.987741 0-294.108581-68.14711-294.108581-155.124344 0-25.10683 10.76007-49.316988 30.486865-70.837127 7.17338-8.070053 19.726795-8.070053 26.900175-0.896673 8.070053 7.17338 8.070053 19.726795 0.896672 26.900175-13.450088 14.34676-20.623468 29.590193-20.623467 43.936953 0 56.490368 103.117338 116.567426 255.551663 116.567426 153.330998 0 255.551664-60.077058 255.551664-116.567426 0-14.34676-6.276708-27.796848-17.93345-41.246935-7.17338-8.070053-6.276708-19.726795 1.793345-26.900175 8.070053-7.17338 19.726795-6.276708 26.900175 1.793345 17.93345 20.623468 27.796848 43.04028 27.796848 67.250437 0 86.977233-128.224168 155.124343-293.211909 155.124344z" fill="#FFFFFF" p-id="11148"></path><path d="M512 781.001751c-164.987741 0-294.108581-68.14711-294.108581-155.124343 0-25.10683 10.76007-50.21366 32.28021-71.7338 7.17338-7.17338 19.726795-8.070053 26.900175-0.896673 7.17338 7.17338 8.070053 19.726795 0.896672 26.900175-14.34676 14.34676-21.52014 29.590193-21.52014 44.833626 0 56.490368 103.117338 116.567426 255.551664 116.567425 153.330998 0 255.551664-60.077058 255.551664-116.567425 0-15.243433-7.17338-30.486865-21.52014-44.833626-7.17338-7.17338-7.17338-19.726795 0.896672-26.900175 7.17338-7.17338 19.726795-7.17338 26.900175 0.896673 20.623468 21.52014 32.28021 46.62697 32.28021 71.7338-0.896673 86.977233-129.120841 155.124343-294.108581 155.124343z" fill="#FFFFFF" p-id="11149"></path></svg>