<?xml version="1.0" standalone="no"?><!DOCTYPE svg PUBLIC "-//W3C//DTD SVG 1.1//EN" "http://www.w3.org/Graphics/SVG/1.1/DTD/svg11.dtd"><svg t="1531380846139" class="icon" style="" viewBox="0 0 1024 1024" version="1.1" xmlns="http://www.w3.org/2000/svg" p-id="2388" xmlns:xlink="http://www.w3.org/1999/xlink" width="32" height="32"><defs><style type="text/css"></style></defs><path d="M735.853859 960.716698c-123.995035 0-224.877677-100.882642-224.877677-224.861304 0-123.996059 100.882642-224.862327 224.877677-224.862327 123.979686 0 224.862327 100.866269 224.862327 224.862327C960.716186 859.834057 859.833545 960.716698 735.853859 960.716698zM735.853859 567.199183c-93.009324 0-168.654164 75.647911-168.654164 168.655188 0 92.992951 75.645864 168.654164 168.654164 168.654164 92.991927 0 168.654164-75.661214 168.654164-168.654164C904.508024 642.847094 828.845787 567.199183 735.853859 567.199183zM707.741591 735.855394l0-28.112268 0-84.33578 56.224536 0 0 84.33578 84.334757 0 0 56.223512L707.741591 763.966639 707.741591 735.855394zM183.427124 539.088962l49.913806 0 0 56.222489-49.913806 0L183.427124 539.088962zM233.339908 735.855394l-49.913806 0 0-56.222489 49.913806 0L233.339908 735.855394zM293.556361 539.088962l49.91483 0 0 56.222489-49.91483 0L293.556361 539.088962zM343.471191 735.855394l-49.91483 0 0-56.222489 49.91483 0L343.471191 735.855394zM403.704017 539.088962l49.91483 0 0 56.222489-49.91483 0L403.704017 539.088962zM453.618846 735.855394l-49.91483 0 0-56.222489 49.91483 0L453.618846 735.855394zM117.443317 454.769554l0 337.308329c0 7.476275 2.955308 14.536065 8.241708 19.87056 5.334495 5.302773 12.395308 8.241708 19.87056 8.241708l323.253218 0c8.306176 20.38119 19.48682 39.291888 33.064047 56.208163L145.555585 876.398314c-22.490224 0-43.684942-8.786107-59.609633-24.709775-15.924691-15.924691-24.709775-37.119409-24.709775-59.609633L61.236178 258.003122c0-22.537296 8.785084-43.717687 24.709775-59.641355 15.924691-15.924691 37.119409-24.678052 59.609633-24.678052l84.334757 0L229.890342 61.23669l56.224536 0 0 112.447025 337.291956 0L623.406834 61.23669l56.222489 0 0 112.447025 56.223512 0c22.506597 0 43.701315 8.753361 59.626006 24.693402 15.925714 15.908318 24.709775 37.08871 24.709775 59.626006l0 158.894893 0 37.870516 0 14.039761c-16.867156-6.836709-34.788318-11.468193-53.380768-14.039761L117.443317 454.768531zM763.966127 315.105654l0-37.759999 0-19.342534c0-7.506974-2.908236-14.566764-8.243755-19.854187-5.334495-5.334495-12.377912-8.258081-19.869536-8.258081l-56.223512 0 0 84.319407-56.222489 0 0-84.319407-337.291956 0 0 84.319407-56.224536 0 0-84.319407-84.334757 0c-7.475252 0-14.536065 2.922563-19.87056 8.225335-5.334495 5.319146-8.241708 12.378935-8.241708 19.886933l0 18.479887 0 37.727253 0 102.687754 646.52281 0L763.966127 315.105654z" p-id="2389" fill="#ffffff"></path></svg>