<?xml version="1.0" standalone="no"?><!DOCTYPE svg PUBLIC "-//W3C//DTD SVG 1.1//EN" "http://www.w3.org/Graphics/SVG/1.1/DTD/svg11.dtd"><svg t="1531380592493" class="icon" style="" viewBox="0 0 1024 1024" version="1.1" xmlns="http://www.w3.org/2000/svg" p-id="2119" xmlns:xlink="http://www.w3.org/1999/xlink" width="32" height="32"><defs><style type="text/css"></style></defs><path d="M1000 301.76a170.56 170.56 0 0 0-293.76-118.4H140.48A116.48 116.48 0 0 0 24 299.84v477.12a116.8 116.8 0 0 0 116.48 116.48h567.36A120 120 0 0 0 832 776.96v-304.64a170.88 170.88 0 0 0 168-170.56z m-380.8 475.2a52.48 52.48 0 0 1-52.48 52.48H140.48a52.48 52.48 0 0 1-52.48-52.48V299.84a52.48 52.48 0 0 1 52.48-52.48h426.24a52.48 52.48 0 0 1 52.48 52.48z m88.64 52.48h-37.76a114.88 114.88 0 0 0 13.12-52.48V389.44A171.2 171.2 0 0 0 768 460.48v316.48a56 56 0 0 1-60.16 52.48z m121.28-420.8a106.88 106.88 0 1 1 106.88-106.88 107.2 107.2 0 0 1-106.88 106.88z" fill="#FFFFFF" p-id="2120"></path><path d="M861.12 211.84h-64v121.92h92.16v-64h-28.16V211.84zM246.08 353.28h289.92v64H246.08zM171.2 455.36h364.48v64H171.2zM171.2 557.44h364.48v64H171.2zM171.2 659.2H480v64H171.2z" fill="#FFFFFF" p-id="2121"></path></svg>