<?xml version="1.0" standalone="no"?><!DOCTYPE svg PUBLIC "-//W3C//DTD SVG 1.1//EN" "http://www.w3.org/Graphics/SVG/1.1/DTD/svg11.dtd"><svg t="1530846017495" class="icon" style="" viewBox="0 0 1024 1024" version="1.1" xmlns="http://www.w3.org/2000/svg" p-id="3017" xmlns:xlink="http://www.w3.org/1999/xlink" width="48" height="48"><defs><style type="text/css"></style></defs><path d="M512 0a512 512 0 1 0 512 512A512 512 0 0 0 512 0z m405.674667 484.693333l-74.197334 105.386667-85.888-96a24.277333 24.277333 0 0 1 1.578667-33.706667 23.765333 23.765333 0 0 1 33.450667 1.28l24.021333 26.88a307.882667 307.882667 0 1 0-446.464 301.226667 305.322667 305.322667 0 0 0 383.274667-86.613333 23.808 23.808 0 0 1 31.616-4.266667 24.362667 24.362667 0 0 1 4.266666 33.706667A352.768 352.768 0 0 1 347.178667 832a361.216 361.216 0 0 1-179.2-421.12 354.56 354.56 0 0 1 694.698666 67.84l15.488-22.186667a23.424 23.424 0 0 1 31.573334-5.546666 24.448 24.448 0 0 1 11.136 15.36 23.424 23.424 0 0 1-3.242667 18.346666z m-289.877334 34.56v38.4h-78.293333v28.16h78.293333v37.973334h-78.293333v70.4h-55.466667v-70.4H416.853333v-38.4h77.354667v-28.16H416.853333v-38.4h59.989334L386.56 359.253333h63.146667l72.533333 136.96 73.557333-138.24h63.146667l-90.282667 159.573334z m0 0" fill="#68A1BE" p-id="3018"></path></svg>