<?xml version="1.0" standalone="no"?><!DOCTYPE svg PUBLIC "-//W3C//DTD SVG 1.1//EN" "http://www.w3.org/Graphics/SVG/1.1/DTD/svg11.dtd"><svg t="1530846457277" class="icon" style="" viewBox="0 0 1024 1024" version="1.1" xmlns="http://www.w3.org/2000/svg" p-id="4604" xmlns:xlink="http://www.w3.org/1999/xlink" width="48" height="48"><defs><style type="text/css"></style></defs><path d="M512 512m-473.6 0a473.6 473.6 0 1 0 947.2 0 473.6 473.6 0 1 0-947.2 0Z" fill="#5E4EAA" p-id="4605"></path><path d="M678.4 452.266667v-34.133334c0-4.266667 0-4.266667-4.266667-4.266666h-123.733333l-4.266667 4.266666v34.133334c0 4.266667 0 4.266667 4.266667 4.266666h123.733333c4.266667 0 4.266667 0 4.266667-4.266666z m0 93.866666V512c0-4.266667 0-4.266667-4.266667-4.266667h-123.733333l-4.266667 4.266667v34.133333c0 4.266667 0 4.266667 4.266667 4.266667h123.733333c4.266667 0 4.266667-4.266667 4.266667-4.266667z m0 98.133334v-34.133334c0-4.266667 0-4.266667-4.266667-4.266666h-123.733333l-4.266667 4.266666v34.133334c0 4.266667 0 4.266667 4.266667 4.266666h123.733333c4.266667 0 4.266667-4.266667 4.266667-4.266666z m-183.466667-25.6c12.8-12.8 17.066667-25.6 17.066667-46.933334 0-12.8 0-21.333333-4.266667-25.6-4.266667-8.533333-8.533333-12.8-12.8-17.066666-4.266667-4.266667-12.8-8.533333-17.066666-12.8-8.533333-4.266667-17.066667-8.533333-25.6-8.533334l-21.333334-8.533333c-4.266667 0-8.533333-4.266667-12.8-4.266667-4.266667 0-8.533333-4.266667-8.533333-4.266666-4.266667 0-4.266667-4.266667-8.533333-8.533334 0-4.266667-4.266667-8.533333-4.266667-12.8 0-4.266667 0-8.533333 4.266667-12.8l8.533333-8.533333c4.266667 0 8.533333-4.266667 12.8-4.266667h42.666667c4.266667 0 8.533333 0 12.8 4.266667 4.266667 0 8.533333 4.266667 12.8 4.266667l12.8-38.4c-8.533333-4.266667-21.333333-4.266667-29.866667-8.533334-8.533333 0-17.066667-4.266667-25.6-4.266666v-34.133334h-34.133333v34.133334c-21.333333 8.533333-38.4 12.8-51.2 25.6-12.8 12.8-17.066667 25.6-17.066667 46.933333 0 8.533333 0 17.066667 4.266667 21.333333 4.266667 4.266667 4.266667 12.8 12.8 17.066667 4.266667 4.266667 8.533333 8.533333 17.066666 12.8 8.533333 4.266667 12.8 8.533333 21.333334 8.533333l17.066666 8.533334c4.266667 0 8.533333 4.266667 12.8 4.266666 4.266667 0 8.533333 4.266667 12.8 4.266667l8.533334 8.533333c4.266667 4.266667 4.266667 8.533333 4.266666 12.8 0 8.533333-4.266667 17.066667-12.8 21.333334-8.533333 4.266667-21.333333 8.533333-34.133333 8.533333h-29.866667c-8.533333 0-17.066667-4.266667-29.866666-8.533333-4.266667 8.533333-4.266667 12.8-8.533334 21.333333 0 8.533333-4.266667 12.8-4.266666 17.066667 4.266667 4.266667 12.8 4.266667 17.066666 4.266666 4.266667 0 12.8 4.266667 17.066667 4.266667h42.666667v34.133333c4.266667 0 8.533333 4.266667 12.8 4.266667 4.266667 0 12.8-4.266667 21.333333-8.533333v-34.133334c21.333333 4.266667 34.133333-4.266667 46.933333-17.066666zM298.666667 298.666667h426.666666c12.8 0 25.6 12.8 25.6 25.6V725.333333c0 12.8-12.8 25.6-25.6 25.6H298.666667c-12.8 0-25.6-12.8-25.6-25.6V324.266667c-4.266667-17.066667 8.533333-25.6 25.6-25.6z" fill="#FFFFFF" p-id="4606"></path></svg>